<svg width="25" height="25" viewBox="0 0 25 25" fill="none" xmlns="http://www.w3.org/2000/svg">
<path d="M10.0014 23.0795C9.91913 23.1618 9.81112 23.2031 9.70312 23.2031C9.59513 23.2031 9.48712 23.1618 9.40486 23.0795L6.87361 20.5483L7.47014 19.9517L9.70312 22.1847L10.7941 21.0938L6.15347 16.4531H0V20.6719H3.79688C3.89433 20.6719 3.98883 20.7056 4.06392 20.7672L8.58811 24.4688H16.875V22.7812H10.2997L10.0014 23.0795Z" fill="#EF1846"/>
<path d="M24.0469 18.9844H22.7812V18.1406H23.625V13.9219C23.625 11.1303 21.354 8.85938 18.5625 8.85938C15.771 8.85938 13.5 11.1303 13.5 13.9219V18.1406H14.3438V18.9844H13.0781C12.8457 18.9844 12.6562 19.1734 12.6562 19.4062C12.6562 19.6391 12.8457 19.8281 13.0781 19.8281H24.0469C24.2793 19.8281 24.4688 19.6391 24.4688 19.4062C24.4688 19.1734 24.2793 18.9844 24.0469 18.9844ZM18.5625 13.9219C19.4932 13.9219 20.25 14.6787 20.25 15.6094C20.25 16.3936 19.71 17.0484 18.9844 17.237V18.1406H18.1406V17.237C17.415 17.0484 16.875 16.3936 16.875 15.6094H17.7188C17.7188 16.0747 18.0972 16.4531 18.5625 16.4531C19.0278 16.4531 19.4062 16.0747 19.4062 15.6094C19.4062 15.144 19.0278 14.7656 18.5625 14.7656C17.6318 14.7656 16.875 14.0088 16.875 13.0781C16.875 12.2939 17.415 11.6391 18.1406 11.4505V10.5469H18.9844V11.4505C19.71 11.6391 20.25 12.2939 20.25 13.0781H19.4062C19.4062 12.6128 19.0278 12.2344 18.5625 12.2344C18.0972 12.2344 17.7188 12.6128 17.7188 13.0781C17.7188 13.5435 18.0972 13.9219 18.5625 13.9219Z" fill="#EF1846"/>
<path d="M19.1138 7.17188L19.9416 4.96547L18.7194 5.45442C18.6186 5.49492 18.5068 5.49492 18.4059 5.45442L17.1838 4.96547L18.0111 7.17188H19.1138Z" fill="#EF1846"/>
<path d="M5.90625 11.8125C7.11492 11.8125 8.2793 11.4467 9.27366 10.7549C9.3922 10.6722 9.54408 10.6561 9.67697 10.7114L11.451 11.4505L10.7118 9.67655C10.6566 9.54366 10.673 9.39136 10.7553 9.27323C11.4467 8.2793 11.8125 7.11492 11.8125 5.90625C11.8125 2.64938 9.16313 0 5.90625 0C2.64938 0 0 2.64938 0 5.90625C0 9.16313 2.64938 11.8125 5.90625 11.8125ZM8.01562 9.70312C7.08497 9.70312 6.32812 8.94628 6.32812 8.01562C6.32812 7.08497 7.08497 6.32812 8.01562 6.32812C8.94628 6.32812 9.70312 7.08497 9.70312 8.01562C9.70312 8.94628 8.94628 9.70312 8.01562 9.70312ZM8.98298 2.23298L9.57952 2.82952L2.82952 9.57952L2.23298 8.98298L8.98298 2.23298ZM3.79688 2.10938C4.72753 2.10938 5.48438 2.86622 5.48438 3.79688C5.48438 4.72753 4.72753 5.48438 3.79688 5.48438C2.86622 5.48438 2.10938 4.72753 2.10938 3.79688C2.10938 2.86622 2.86622 2.10938 3.79688 2.10938Z" fill="#EF1846"/>
<path d="M8.01562 8.85938C8.48162 8.85938 8.85938 8.48162 8.85938 8.01562C8.85938 7.54963 8.48162 7.17188 8.01562 7.17188C7.54963 7.17188 7.17188 7.54963 7.17188 8.01562C7.17188 8.48162 7.54963 8.85938 8.01562 8.85938Z" fill="#EF1846"/>
<path d="M3.79688 4.64062C4.26287 4.64062 4.64062 4.26287 4.64062 3.79688C4.64062 3.33088 4.26287 2.95312 3.79688 2.95312C3.33088 2.95312 2.95312 3.33088 2.95312 3.79688C2.95312 4.26287 3.33088 4.64062 3.79688 4.64062Z" fill="#EF1846"/>
</svg>
