<svg width="21" height="21" viewBox="0 0 21 21" fill="none" xmlns="http://www.w3.org/2000/svg">
<g clip-path="url(#clip0_501_171)">
<path d="M17.3366 20.25L20.1376 9.75H0.862427L3.66266 20.25H17.3366ZM18.375 10.125H19.125V10.875H18.375V10.125ZM16.875 10.125H17.625V10.875H16.875V10.125ZM15.375 10.125H16.125V10.875H15.375V10.125ZM15.75 18.75H16.5C16.7071 18.75 16.875 18.9179 16.875 19.125C16.875 19.3321 16.7071 19.5 16.5 19.5H15.75C15.5429 19.5 15.375 19.3321 15.375 19.125C15.375 18.9179 15.5429 18.75 15.75 18.75ZM13.875 10.125H14.625V10.875H13.875V10.125ZM12.375 10.125H13.125V10.875H12.375V10.125ZM10.875 10.125H11.625V10.875H10.875V10.125ZM9.375 10.125H10.125V10.875H9.375V10.125ZM7.875 10.125H8.625V10.875H7.875V10.125ZM7.36359 14.4886C7.50989 14.3421 7.74738 14.3421 7.89368 14.4886L9.75 16.3447L13.7272 12.3671C13.8737 12.2206 14.1114 12.2206 14.2579 12.3671C14.4044 12.5136 14.4044 12.7513 14.2579 12.8978L10.0151 17.1401C9.86865 17.2864 9.63135 17.2864 9.48486 17.1401L7.36359 15.0187C7.2171 14.8724 7.2171 14.6349 7.36359 14.4886ZM6.375 10.125H7.125V10.875H6.375V10.125ZM4.875 10.125H5.625V10.875H4.875V10.125ZM4.5 18.75H14.25C14.4571 18.75 14.625 18.9179 14.625 19.125C14.625 19.3321 14.4571 19.5 14.25 19.5H4.5C4.29291 19.5 4.125 19.3321 4.125 19.125C4.125 18.9179 4.29291 18.75 4.5 18.75ZM2.625 10.875H1.875V10.125H2.625V10.875ZM3.375 10.125H4.125V10.875H3.375V10.125Z" fill="#EF1846"/>
<path d="M17.7803 6.75L13.3876 2.35693C13.4608 2.20679 13.4993 2.04199 13.5 1.875C13.5 1.25372 12.9963 0.75 12.375 0.75C11.7537 0.75 11.25 1.25372 11.25 1.875C11.25 2.49628 11.7537 3 12.375 3C12.542 2.99927 12.7068 2.96081 12.8569 2.88757L16.7197 6.75H4.28027L8.1427 2.88757C8.29285 2.961 8.45782 2.99945 8.625 3C9.24628 3 9.75 2.49628 9.75 1.875C9.75 1.25372 9.24628 0.75 8.625 0.75C8.00372 0.75 7.5 1.25372 7.5 1.875C7.50073 2.04199 7.53918 2.20679 7.61243 2.35693L3.21973 6.75H0V9H21V6.75H17.7803Z" fill="#EF1846"/>
</g>
<defs>
<clipPath id="clip0_501_171">
<rect width="21" height="21" fill="white"/>
</clipPath>
</defs>
</svg>
